<svg id="Layer_2" data-name="Layer 2" xmlns="http://www.w3.org/2000/svg" viewBox="0 0 453.79 430.23"><defs><style>.cls-1{fill:#686868;}.cls-2{fill:#afb2ff;}.cls-3{fill:#3c5b8e;}.cls-4{fill:#00170b;}.cls-5{fill:#fcdfc6;}.cls-6{fill:#f4ba8e;}.cls-7{fill:#fff;}.cls-10,.cls-11,.cls-12,.cls-13,.cls-8,.cls-9{fill:none;}.cls-8{stroke:#fcdfc6;}.cls-10,.cls-11,.cls-12,.cls-8,.cls-9{stroke-miterlimit:10;}.cls-10,.cls-11,.cls-13,.cls-9{stroke:#000;}.cls-10,.cls-13{stroke-width:2px;}.cls-11{stroke-width:1.5px;}.cls-12{stroke:#f4ba8e;}.cls-13{stroke-linecap:round;stroke-linejoin:round;}.cls-14{fill:#c6c6c6;}</style></defs><title>websiteface</title><path class="cls-1" d="M854.44,460.65a6.55,6.55,0,0,1,4.63,11.19,6.5,6.5,0,0,1-4.63,1.92H413.77a6.56,6.56,0,0,1,0-13.11h98.29l.7,0H732.9l.7,0Z" transform="translate(-407.21 -43.53)"/><path class="cls-2" d="M744.9,320.12V448.67a12,12,0,0,1-11.3,12H512.06a12,12,0,0,1-11.29-12V320.12a12,12,0,0,1,12-12H732.9A12,12,0,0,1,744.9,320.12ZM630.54,376a6.51,6.51,0,0,0-1.9-4.6,7.26,7.26,0,0,0-1.51-1.13v5.55c-1.09,1.68-5.14,1.71-6.24,0v-5.54a6.88,6.88,0,0,0-1.51,1.12,6.53,6.53,0,0,0,.38,9.56,3.32,3.32,0,0,1,1.16,2.53v14.21a3.09,3.09,0,1,0,6.17,0V383.47a3.33,3.33,0,0,1,1.17-2.53A6.55,6.55,0,0,0,630.54,376Z" transform="translate(-407.21 -43.53)"/><path class="cls-1" d="M512.06,460.65H733.6l-.7,0H512.76Z" transform="translate(-407.21 -43.53)"/><path class="cls-3" d="M707.71,306.79v1.34H541.4v-2c9.33-32.64,54.62-30,54.62-30a4.86,4.86,0,0,0,1-.56c.05,14.67,12.26,26.54,27.31,26.54s27.08-11.7,27.31-26.22a5.72,5.72,0,0,0,1.45.91S698.39,274.16,707.71,306.79Z" transform="translate(-407.21 -43.53)"/><path class="cls-4" d="M574,124.18c-2.75,2.79-6.57,11.67-6.57,39.4h-4.66V148.92a11.36,11.36,0,0,0-4.38.12s-7.61-70.72,24.36-83.38c0,0,19.32-10.66,10.66,7.33,0,0,51.29-52.63,41.3-16,0,0,50.62-28.64,31.31,0,0,0,65.27-8,29.3,18,0,0,35.31,36-6,32,0,0,35.3,26,2,34,0,0-.39,4.92-3.1,8.15a7.35,7.35,0,0,1-4.24,2.6,8.48,8.48,0,0,1-2.87.08c-3.39-.41-7.9-2.59-13.88-7.75-1.24-1.07-2.54-2.27-3.92-3.61A176.72,176.72,0,0,1,648,123c.23.45,7.18,14.19-5.64,14.19-6.51,0-18.13-3.55-38.33-14.2,0,0,4.36,10.3,1.41,14.5-1.32,1.89-4.11,2.55-9.42.51C591.09,136.07,584,131.86,574,124.18Z" transform="translate(-407.21 -43.53)"/><path class="cls-5" d="M691.94,149.59c10,31.29-5.84,30.84-7.8,30.66L684,163.58v-.67s-.66-7.22,0-11.23a7.35,7.35,0,0,0,4.24-2.6h0A16.16,16.16,0,0,1,691.94,149.59Z" transform="translate(-407.21 -43.53)"/><path class="cls-6" d="M599,244.75c-33.84-18.92-36.19-56.3-36.31-63.84V163.58h2v.67s2.67,26.64,8,29.3S588,208.21,590,214.87s8-12.66,11.32-12c0,0,36.64-3.33,43.3,0s8,12.66,8,12.66,2,3.33,14.66-18c0,0,12,5.33,15.32-33.3v-1.34H684v.67l.19,16.67a.76.76,0,0,1-.19,0c.08.62.15,1.24.21,1.85,3.61,34.56-16,52.82-33.85,62.19a94.21,94.21,0,0,1-27,9.24A83.15,83.15,0,0,1,599,244.75Zm49-21.89c.67-17.32-5.33-15.32-5.33-15.32H604c-6-.66-4.67,16-4.67,16,8,10.66,17.32,8,17.32,8s2.67-6,6-6,6.66,6,6.66,6C636.66,235.52,648,222.86,648,222.86Z" transform="translate(-407.21 -43.53)"/><path class="cls-4" d="M684,162.91h-2.66s.16-4.84-.22-11.15a8.48,8.48,0,0,0,2.87-.08C683.29,155.69,684,162.91,684,162.91Z" transform="translate(-407.21 -43.53)"/><path class="cls-5" d="M682.62,162.91v1.34c-3.33,38.63-15.32,33.3-15.32,33.3-12.66,21.32-14.66,18-14.66,18s-1.33-9.33-8-12.66-43.3,0-43.3,0c-3.33-.67-9.32,18.65-11.32,12s-12-18.65-17.32-21.32-8-29.3-8-29.3v-.67h2.67c0-27.73,3.82-36.61,6.57-39.4C584,131.86,591.09,136.07,596,138c-15,1.59-19.31,6.3-19.31,6.3l36-2.66v-4c-2.59-.12-5-.17-7.25-.15,3-4.2-1.41-14.5-1.41-14.5,20.2,10.65,31.82,14.2,38.33,14.2v.32c-2.37,0-4.92,0-7.68.13v4L667.19,144c6,5.16,10.49,7.34,13.88,7.75.38,6.31.22,11.15.22,11.15Z" transform="translate(-407.21 -43.53)"/><path class="cls-4" d="M667.19,144l-32.53-2.41v-4c2.76-.13,5.31-.17,7.68-.13s4.48.12,6.47.26a59.43,59.43,0,0,1,14.46,2.67C664.65,141.74,666,142.94,667.19,144Z" transform="translate(-407.21 -43.53)"/><path class="cls-5" d="M663.27,140.4a59.43,59.43,0,0,0-14.46-2.67c-2-.14-4.13-.24-6.47-.26v-.32c12.82,0,5.87-13.74,5.64-14.19A176.72,176.72,0,0,0,663.27,140.4Z" transform="translate(-407.21 -43.53)"/><path class="cls-5" d="M651.64,275.49v.42l-.45-.42Z" transform="translate(-407.21 -43.53)"/><path class="cls-5" d="M651.19,275.49l.45.42c-.23,14.52-12.37,26.22-27.31,26.22S597.07,290.26,597,275.59l.13-.1Z" transform="translate(-407.21 -43.53)"/><path class="cls-5" d="M651.19,275.49h-54c6.13-4.53,3.85-21.05,1.88-30.74a83.15,83.15,0,0,0,24.3,8.76,94.21,94.21,0,0,0,27-9.24C648.39,253.35,645.81,270,651.19,275.49Z" transform="translate(-407.21 -43.53)"/><path class="cls-5" d="M642.65,207.54s6-2,5.33,15.32c0,0-11.32,12.66-18.65,8.66,0,0-3.33-6-6.66-6s-6,6-6,6-9.32,2.67-17.32-8c0,0-1.33-16.65,4.67-16Z" transform="translate(-407.21 -43.53)"/><path class="cls-7" d="M628.64,371.38a6.53,6.53,0,0,1-.38,9.56,3.33,3.33,0,0,0-1.17,2.53v14.21a3.09,3.09,0,0,1-6.17,0V383.47a3.32,3.32,0,0,0-1.16-2.53,6.53,6.53,0,0,1-.38-9.56,6.88,6.88,0,0,1,1.51-1.12v5.54c1.1,1.71,5.15,1.68,6.24,0v-5.55A7.26,7.26,0,0,1,628.64,371.38Z" transform="translate(-407.21 -43.53)"/><path class="cls-4" d="M612.68,137.6v4l-36,2.66S581,139.55,596,138c5.31,2,8.1,1.38,9.42-.51C607.68,137.43,610.09,137.48,612.68,137.6Z" transform="translate(-407.21 -43.53)"/><path class="cls-5" d="M597,275.49h.13l-.13.1Z" transform="translate(-407.21 -43.53)"/><path class="cls-5" d="M562.72,163.58v16s-11.33,0-12-16.66a18.43,18.43,0,0,1,1.52-9.07,8.83,8.83,0,0,1,6.09-4.8,11.36,11.36,0,0,1,4.38-.12Z" transform="translate(-407.21 -43.53)"/><path class="cls-8" d="M650.31,244.27c-1.92,9.08-4.5,25.68.88,31.22l.45.42a5.72,5.72,0,0,0,1.45.91s45.3-2.66,54.62,30" transform="translate(-407.21 -43.53)"/><path class="cls-8" d="M599,244.75c2,9.69,4.25,26.21-1.88,30.74l-.13.1a4.86,4.86,0,0,1-1,.56s-45.29-2.66-54.62,30" transform="translate(-407.21 -43.53)"/><path class="cls-8" d="M552.25,153.84a8.83,8.83,0,0,1,6.09-4.8" transform="translate(-407.21 -43.53)"/><path class="cls-9" d="M574.21,123.92c-.08.08-.17.16-.26.26" transform="translate(-407.21 -43.53)"/><path class="cls-8" d="M684,151.59a.28.28,0,0,0,0,.09c-.65,4,0,11.23,0,11.23h-2.66s.16-4.84-.22-11.15" transform="translate(-407.21 -43.53)"/><path class="cls-8" d="M552.25,153.84a18.43,18.43,0,0,0-1.52,9.07c.66,16.66,12,16.66,12,16.66s0,.47,0,1.34c.12,7.54,2.47,44.92,36.31,63.84a83.15,83.15,0,0,0,24.3,8.76,94.21,94.21,0,0,0,27-9.24c17.89-9.37,37.46-27.63,33.85-62.19-.06-.61-.13-1.23-.21-1.85a.76.76,0,0,0,.19,0c2,.18,17.82.63,7.8-30.66a16.16,16.16,0,0,0-3.74-.5" transform="translate(-407.21 -43.53)"/><path class="cls-10" d="M604,212.87s22.64,13.32,37.3,0" transform="translate(-407.21 -43.53)"/><path class="cls-11" d="M619.34,164.25v15.32s-11.33,18.65,3.33,18c0,0,10.66.67,9.32-4" transform="translate(-407.21 -43.53)"/><path class="cls-10" d="M588.7,158.47s8-12,15,0" transform="translate(-407.21 -43.53)"/><path class="cls-9" d="M605.43,137.45c2.25,0,4.66,0,7.25.15v4l-36,2.66S581,139.55,596,138" transform="translate(-407.21 -43.53)"/><path class="cls-9" d="M667.19,144l-32.53-2.41v-4c2.76-.13,5.31-.17,7.68-.13s4.48.12,6.47.26a59.43,59.43,0,0,1,14.46,2.67" transform="translate(-407.21 -43.53)"/><path class="cls-9" d="M558.34,149s-7.61-70.72,24.36-83.38c0,0,19.32-10.66,10.66,7.33,0,0,51.29-52.63,41.3-16,0,0,50.62-28.64,31.31,0,0,0,65.27-8,29.3,18,0,0,35.31,36-6,32,0,0,35.3,26,2,34,0,0-.39,4.92-3.1,8.15a7.35,7.35,0,0,1-4.24,2.6,8.48,8.48,0,0,1-2.87.08c-3.39-.41-7.9-2.59-13.88-7.75-1.24-1.07-2.54-2.27-3.92-3.61A176.72,176.72,0,0,1,648,123c.23.45,7.18,14.19-5.64,14.19-6.51,0-18.13-3.55-38.33-14.2,0,0,4.36,10.3,1.41,14.5-1.32,1.89-4.11,2.55-9.42.51-4.92-1.89-12-6.1-22.06-13.78-2.75,2.79-6.57,11.67-6.57,39.4h-4.66V148.92A11.36,11.36,0,0,0,558.34,149Z" transform="translate(-407.21 -43.53)"/><path class="cls-9" d="M648,123h0" transform="translate(-407.21 -43.53)"/><path class="cls-8" d="M564.71,164.25s2.67,26.64,8,29.3S588,208.21,590,214.87s8-12.66,11.32-12c0,0,36.64-3.33,43.3,0s8,12.66,8,12.66,2,3.33,14.66-18c0,0,12,5.33,15.32-33.3" transform="translate(-407.21 -43.53)"/><path class="cls-8" d="M648,222.86s-11.32,12.66-18.65,8.66c0,0-3.33-6-6.66-6s-6,6-6,6-9.32,2.67-17.32-8c0,0-1.33-16.65,4.67-16h38.63S648.65,205.54,648,222.86Z" transform="translate(-407.21 -43.53)"/><polyline class="cls-8" points="276.74 120.05 276.93 136.72 276.95 138.55"/><polyline class="cls-12" points="155.51 120.05 155.51 136.03 155.51 137.38"/><path class="cls-13" d="M645.32,158.47s8-12,15,0" transform="translate(-407.21 -43.53)"/><path class="cls-14" d="M803.14,446.38c-12.14,0-22,6.39-22,14.27h44C825.12,452.77,815.28,446.38,803.14,446.38Z" transform="translate(-407.21 -43.53)"/></svg>